Coordinates
version=1
nRows=6
nColumns=63
inDegrees=yes

Units are S.I. units (second, meters, Newtons, ...)
If the header above contains a line with 'inDegrees', this indicates whether rotational values are in degrees (yes) or radians (no).

endheader
time	pelvis_tilt	pelvis_list	pelvis_rotation	pelvis_tx	pelvis_ty	pelvis_tz	hip_flexion_r	hip_adduction_r	hip_rotation_r	knee_angle_r	knee_angle_r_beta	ankle_angle_r	subtalar_angle_r	mtp_angle_r	hip_flexion_l	hip_adduction_l	hip_rotation_l	knee_angle_l	knee_angle_l_beta	ankle_angle_l	subtalar_angle_l	mtp_angle_l	L5_S1_Flex_Ext	L5_S1_Lat_Bending	L5_S1_axial_rotation	L4_L5_Flex_Ext	L4_L5_Lat_Bending	L4_L5_axial_rotation	L3_L4_Flex_Ext	L3_L4_Lat_Bending	L3_L4_axial_rotation	L2_L3_Flex_Ext	L2_L3_Lat_Bending	L2_L3_axial_rotation	L1_L2_Flex_Ext	L1_L2_Lat_Bending	L1_L2_axial_rotation	L1_T12_Flex_Ext	L1_T12_Lat_Bending	L1_T12_axial_rotation	Abs_r3	Abs_r2	Abs_r1	Abs_t1	Abs_t2	neck_flexion	neck_bending	neck_rotation	arm_flex_r	arm_add_r	arm_rot_r	elbow_flex_r	pro_sup_r	wrist_flex_r	wrist_dev_r	arm_flex_l	arm_add_l	arm_rot_l	elbow_flex_l	pro_sup_l	wrist_flex_l	wrist_dev_l
      0.90740741	      2.19088278	     -7.74010536	     92.66361582	      0.17256383	      1.00439147	      0.38695178	     -6.02896594	      3.58117699	      1.30778043	      0.93864122	      0.01638238	     32.29427296	     -3.07903432	      0.00000000	     -6.86284170	     -2.16961349	     -4.96045349	      2.65324935	      0.04630794	     31.00488257	     -5.50744152	      0.00000000	     -0.26155187	      0.49651288	      1.51258494	     -0.48572798	      0.66036213	      1.60712149	     -0.42970356	      1.20722142	      1.60712149	     -0.29892763	      1.20722142	      1.32351182	     -0.24287707	      1.01248907	      1.22897526	     -0.14945074	      0.76909845	      1.13443870	     -1.86823884	      5.61665300	      8.41254364	      0.00000000	      0.00000000	      9.93109442	      0.51271112	      0.53437978	     -8.44372873	    -18.68173638	    -10.48532901	     27.92115236	     60.38045589	    -11.67486911	      3.52939995	     29.25683075	    -12.02779252	     32.42573452	    142.13290895	     89.31003829	      7.35000700	      3.66251824
      0.92592593	      2.27305635	     -7.43552698	     92.78105251	      0.17227756	      1.00491494	      0.38730175	     -6.22692570	      3.68266934	      1.43548185	      0.86565073	      0.01510846	     32.39231344	     -3.18279358	      0.00000000	     -7.11190997	     -2.27551731	     -4.23372737	      2.55017233	      0.04450890	     31.27043989	     -5.66680274	      0.00000000	     -0.30801751	      0.52448541	      1.63584292	     -0.57201932	      0.69756559	      1.73808310	     -0.50604197	      1.27523382	      1.73808310	     -0.35203322	      1.27523382	      1.43136256	     -0.28602506	      1.06953064	      1.32912237	     -0.17600121	      0.81242790	      1.22688219	     -2.20013830	      5.93308383	      9.09806758	      0.00000000	      0.00000000	      9.33909893	     -0.13626933	      0.64028106	     -8.93374125	    -18.68965409	    -11.09792663	     25.81780041	     58.90342971	     -9.81181702	      1.62626746	     30.78554557	    -11.72177050	     32.06511749	    142.50900518	     89.34916944	      7.51589242	      3.60356596
      0.94444444	      2.30946084	     -7.18492386	     92.77317542	      0.17185379	      1.00530886	      0.38770603	     -6.37466646	      3.69178024	      1.65113914	      0.81482540	      0.01422139	     32.49895347	     -3.32544370	      0.00000000	     -7.54357133	     -2.19642538	      0.13975635	      1.89591671	      0.03308999	     30.27735994	    -10.82267378	      0.00000000	     -0.34165144	      0.53854980	      1.80378294	     -0.63448090	      0.71627123	      1.91651937	     -0.56129916	      1.30942999	      1.91651937	     -0.39047344	      1.30942999	      1.57831007	     -0.31725753	      1.09821075	      1.46557364	     -0.19521964	      0.83421364	      1.35283720	     -2.44038210	      6.09218305	     10.03209957	      0.00000000	      0.00000000	      8.79748928	     -0.47659413	     -0.13568537	     -9.45037386	    -20.12395713	     -3.20855243	     23.57896656	     47.83553330	     -7.79202473	     -2.08690129	     32.41714046	    -10.90761351	     31.88146837	    142.33840436	     89.36617924	      7.15214950	      4.02972300
      0.96296296	      2.36535414	     -6.92398361	     92.79313246	      0.17161928	      1.00593636	      0.38848091	     -6.53935555	      3.73499142	      1.48006638	      0.80085459	      0.01397755	     32.52000004	     -3.18209789	      0.00000000	     -7.72411521	     -2.26624490	      0.51093087	      1.81044359	      0.03159820	     30.63342338	    -10.56381307	      0.00000000	     -0.38170484	      0.56140802	      1.95432394	     -0.70886406	      0.74667266	      2.07646919	     -0.62710288	      1.36500745	      2.07646919	     -0.43625046	      1.36500745	      1.71003345	     -0.35445111	      1.14482322	      1.58788820	     -0.21810615	      0.86962102	      1.46574295	     -2.72647950	      6.35075975	     10.86936345	      0.00000000	      0.00000000	      8.07388446	     -0.99339699	     -0.52510808	    -10.17818335	    -20.07121094	     -3.65794281	     22.74067809	     47.22386199	     -6.92808311	     -2.88149262	     34.07898261	    -10.00443587	     31.54826333	    141.82449659	     89.37289821	      6.50548470	      4.44653213
      0.98148148	      2.31699974	     -6.90004786	     92.81265541	      0.17122823	      1.00637254	      0.38949767	     -6.47666176	      3.64458190	      1.31565905	      0.83396205	      0.01455538	     32.39836930	     -3.18062981	      0.00000000	     -7.64674007	     -2.19481521	      0.85919962	      1.75762327	      0.03067631	     30.85326953	    -10.38607771	      0.00000000	     -0.39267812	      0.57046847	      2.03363983	     -0.72924255	      0.75872306	      2.16074232	     -0.64513089	      1.38703704	      2.16074232	     -0.44879183	      1.38703704	      1.77943485	     -0.36464091	      1.16329930	      1.65233236	     -0.22437628	      0.88365566	      1.52522987	     -2.80486058	      6.45325342	     11.31049463	      0.00000000	      0.00000000	      7.48724284	     -1.34892045	     -0.30321823	    -10.67891963	    -20.09759373	     -3.63271975	     22.34701072	     47.18430551	     -6.92293107	     -2.83890586	     35.51977807	     -9.11994437	     31.01762723	    141.21571238	     89.39365654	      6.09112961	      4.63425240
      1.00000000	      2.42981899	     -6.78510971	     92.60904394	      0.17102296	      1.00679538	      0.39013745	     -6.56310787	      3.68482272	      0.93264518	      0.90632893	      0.01581842	     32.24665773	     -2.60068728	      0.00000000	     -7.74204838	     -2.24898373	      0.94166254	      1.71930053	      0.03000746	     31.00340132	    -10.59514820	      0.00000000	     -0.41313640	      0.59297092	      2.15305865	     -0.76723562	      0.78865133	      2.28762481	     -0.67874180	      1.44174951	      2.28762481	     -0.47217360	      1.44174951	      1.88392632	     -0.38363846	      1.20918631	      1.74936015	     -0.23606614	      0.91851196	      1.61479399	     -2.95099202	      6.70780569	     11.97466629	      0.00000000	      0.00000000	      6.91707313	     -2.02599914	     -1.18723018	    -11.36608501	    -20.07600336	     -3.88862022	     22.45930647	     46.66628354	     -7.12062767	     -2.57647565	     36.98084669	     -8.27983183	     31.02783011	    140.57673019	     89.39544255	      4.53561858	      5.15947328
